<svg width="243" height="68" viewBox="0 0 243 68" fill="none" xmlns="http://www.w3.org/2000/svg">
<g clip-path="url(#clip0_14_285)">
<circle cx="12.1324" cy="19.5456" r="5.88235" fill="#5C5C87" fill-opacity="0.8"/>
<ellipse cx="12.1324" cy="33.6632" rx="5.88235" ry="5.88235" fill="#8282A8" fill-opacity="0.6"/>
<ellipse cx="12.1324" cy="47.7809" rx="5.88235" ry="5.88235" fill="#8282A8" fill-opacity="0.3"/>
<ellipse cx="26.25" cy="19.5456" rx="5.88235" ry="5.88235" fill="#8282A8" fill-opacity="0.07"/>
<circle cx="26.25" cy="33.6632" r="5.88235" fill="#8282A8" fill-opacity="0.9"/>
<ellipse cx="26.25" cy="47.7809" rx="5.88235" ry="5.88235" fill="#8282A8" fill-opacity="0.6"/>
<circle cx="40.3676" cy="19.5456" r="5.88235" fill="#8282A8" fill-opacity="0.07"/>
<ellipse cx="40.3676" cy="33.6632" rx="5.88235" ry="5.88235" fill="#8282A8" fill-opacity="0.07"/>
<ellipse cx="40.3676" cy="47.7809" rx="5.88235" ry="5.88235" fill="#5C5C87" fill-opacity="0.8"/>
<path d="M81.405 52.7332H67.635C64.845 52.7332 63.18 52.7782 61.515 52.8682C61.785 51.2032 61.875 49.4482 61.875 46.6132V23.0782C61.875 19.9732 61.785 18.2182 61.515 16.1482H69.705C69.39 18.8932 69.345 19.4782 69.345 22.9882V46.0732H81.405C84.51 46.0732 86.085 45.9832 88.065 45.7582V53.0482C86.76 52.8682 84.24 52.7332 81.405 52.7332ZM103.864 53.6332C95.2689 53.6332 89.8239 48.0982 89.8239 39.4132C89.8239 30.7282 95.3139 25.1932 103.909 25.1932C112.504 25.1932 117.949 30.6832 117.949 39.3232C117.949 47.9632 112.369 53.6332 103.864 53.6332ZM103.954 30.8632C99.6339 30.8632 96.9789 34.0582 96.9789 39.3232C96.9789 44.6332 99.5889 47.8732 103.909 47.8732C108.229 47.8732 110.794 44.7232 110.794 39.4582C110.794 34.0582 108.274 30.8632 103.954 30.8632ZM121.522 56.4232L126.967 52.7782C128.587 54.8932 130.882 55.9732 133.852 55.9732C136.822 55.9732 139.162 55.0732 140.287 53.4982C141.187 52.1932 141.502 50.8882 141.682 47.8282C139.522 50.2582 136.777 51.3832 132.997 51.3832C125.617 51.3832 120.892 46.3882 120.892 38.5582C120.892 33.8782 122.557 30.2332 125.797 27.8482C127.912 26.3182 130.342 25.5532 133.267 25.5532C137.002 25.5532 139.612 26.5432 141.682 28.7482C141.637 28.3882 141.637 28.0732 141.637 27.5782V26.0932H148.972C148.702 28.1182 148.612 29.4682 148.612 32.0332V47.2882C148.612 52.7332 147.397 56.1082 144.697 58.3132C142.357 60.2032 138.442 61.2382 133.762 61.2382C128.092 61.2382 124.627 59.8882 121.522 56.4232ZM128.092 38.5582C128.092 41.0332 128.722 42.9232 130.027 44.2282C131.062 45.2632 132.727 45.9382 134.257 45.9382C135.517 45.9382 137.002 45.5332 138.127 44.8132C140.242 43.5532 141.412 41.2582 141.412 38.4232C141.412 34.1032 138.487 30.9532 134.482 30.9532C130.612 30.9532 128.092 33.9682 128.092 38.5582ZM153.017 44.9032L160.487 44.0032C160.757 45.1282 160.982 45.6232 161.477 46.2082C162.332 47.1982 163.952 47.7382 166.112 47.7382C169.037 47.7382 170.882 46.7032 170.882 45.0382C170.882 44.3182 170.567 43.7332 169.937 43.2832C169.307 42.8332 168.407 42.5632 165.842 42.0232C161.612 41.1682 160.037 40.7182 158.462 39.9982C155.807 38.7832 154.232 36.3982 154.232 33.5632C154.232 28.3882 158.507 25.2382 165.482 25.2382C169.442 25.2382 172.502 26.1832 174.437 27.9832C175.832 29.2432 176.552 30.5482 177.092 32.8882L169.847 33.7432C169.577 31.6282 168.272 30.7282 165.572 30.7282C162.872 30.7282 161.207 31.6282 161.207 33.1132C161.207 33.8782 161.702 34.5082 162.602 34.9132C163.412 35.3182 164.357 35.5882 166.697 36.0832C171.287 37.0732 172.817 37.5682 174.527 38.6032C176.777 39.9532 177.947 41.9782 177.947 44.6332C177.947 50.2132 173.447 53.4982 165.797 53.4982C160.532 53.4982 156.797 52.0582 154.772 49.2232C153.917 48.0532 153.467 46.9732 153.017 44.9032ZM207.875 41.3482H188.075C188.3 43.4632 188.705 44.5882 189.605 45.7132C190.82 47.1982 192.575 47.9632 194.735 47.9632C197.885 47.9632 200.045 46.4782 200.99 43.7332L207.515 45.6682C206.525 47.8282 205.85 48.8632 204.635 50.0332C202.25 52.4182 198.83 53.6782 194.735 53.6782C190.685 53.6782 187.31 52.4632 184.97 50.1232C182.405 47.6032 181.01 43.7782 181.01 39.4132C181.01 30.8632 186.365 25.1932 194.465 25.1932C200.36 25.1932 204.635 28.0732 206.57 33.2482C207.38 35.4532 207.605 36.8932 207.785 40.2682C207.785 40.4482 207.785 40.4932 207.875 41.3482ZM188.21 36.1282H200.675C200.405 34.6882 200.09 33.8782 199.415 32.9782C198.335 31.5832 196.625 30.8182 194.555 30.8182C191.225 30.8182 189.065 32.6182 188.21 36.1282ZM239.876 61.1932H232.136C232.406 59.1232 232.496 57.5482 232.496 54.6682V51.7432C232.496 51.3382 232.541 50.5282 232.586 49.3582C231.506 50.4382 230.921 50.8882 229.931 51.4282C228.086 52.4182 225.701 52.9582 223.316 52.9582C219.761 52.9582 216.611 51.7432 214.406 49.5832C212.021 47.1982 210.761 43.5982 210.761 39.2782C210.761 30.6382 215.666 25.3732 223.721 25.3732C227.456 25.3732 230.471 26.5882 232.586 28.9282C232.541 28.5232 232.541 27.9382 232.541 27.5332V26.0932H239.876C239.606 28.0282 239.516 29.6932 239.516 32.6182V54.7132C239.516 57.5482 239.606 59.5282 239.876 61.1932ZM218.006 39.3232C218.006 44.1382 220.706 47.2432 224.846 47.2432C227.546 47.2432 230.066 45.8032 231.281 43.5082C232.046 42.1582 232.361 40.7632 232.361 39.0532C232.361 34.4632 229.301 31.1332 225.071 31.1332C220.751 31.1332 218.006 34.3282 218.006 39.3232Z" fill="#5C5C87"/>
</g>
<defs>
<clipPath id="clip0_14_285">
<rect width="242.5" height="67" fill="white" transform="translate(0 0.788208)"/>
</clipPath>
</defs>
</svg>
